<?xml version="1.0" encoding="UTF-8"?>
<svg id="Layer_1" data-name="Layer 1" xmlns="http://www.w3.org/2000/svg" viewBox="0 0 4180.37 1243.56">
  <polygon points="2217.11 1243.07 2813.13 1243.07 2812.86 1243.56 2217.11 1243.56 2217.11 1243.07" fill="#ededed"/>
  <polygon points="2962.32 0 2821.16 658.19 2807.61 0 2217.11 0 2217.11 11.12 2777.16 688.37 2217.11 688.37 2217.11 1243.07 2813.13 1243.07 3486.69 0 2962.32 0" fill="#ededed"/>
  <path d="M3572.4,0l-429.27,793.09-.05,4.91,368.06,445.07h669.23V0h-607.98Z" fill="#ededed"/>
  <path d="M1174.06,0v221.04l166.64,38.74,494.68,115.01-661.32,14.76v854.01h616.76l153.43-76.07,14.73,76.07h188.69V0h-973.61Z" fill="#ededed"/>
  <polygon points="1098.04 0 1098.04 1243.56 855.7 1243.56 809.25 941.5 726.39 1243.56 261.8 1243.56 220.27 973.41 146.16 1243.56 0 1243.56 0 0 387.02 0 533.19 950.63 793.94 0 1098.04 0" fill="#ededed"/>
  <polygon points="1592.14 980.01 1430.66 818.53 1580.25 621.47 1955.62 792.04 1592.14 980.01" fill="#141111"/>
  <polygon points="3415.78 776.89 3559.75 601.25 3922.21 790.44 3571.83 941.72 3415.78 776.89" fill="#141111"/>
</svg>