<?xml version="1.0" encoding="UTF-8"?>
<svg id="Layer_1" data-name="Layer 1" xmlns="http://www.w3.org/2000/svg" viewBox="0 0 2149.36 2504.22">
  <defs>
    <style>
      .cls-1 {
        stroke: #95fdff;
      }

      .cls-1, .cls-2 {
        stroke-width: 1.06px;
      }

      .cls-1, .cls-2, .cls-3 {
        fill: #e3e3e3;
        stroke-miterlimit: 10;
      }

      .cls-2, .cls-3 {
        stroke: #fff;
      }

      .cls-3 {
        stroke-width: .97px;
      }
    </style>
  </defs>
  <g>
    <polygon class="cls-2" points="1.16 2503.18 653.16 2503.18 652.87 2503.69 1.16 2503.69 1.16 2503.18"/>
    <polygon class="cls-2" points="816.37 1226.24 661.95 1902.36 647.13 1226.24 1.16 1226.24 613.82 1933.36 1.16 1933.36 1.16 2503.18 653.16 2503.18 1389.99 1226.24 816.37 1226.24"/>
    <path class="cls-1" d="M1483.75,1226.24l-469.59,814.7,402.58,462.24h732.09v-1276.94h-665.08ZM1736.77,2243.87l-248.43,2.23-95.48-410.32,372.79,176.5-28.87,231.59Z"/>
  </g>
  <path class="cls-3" d="M1175.22.49v207.57l166.64,36.38,494.68,108-661.32,13.86v801.95h616.76l153.43-71.44,14.73,71.44h188.69V.48h-973.61ZM1751.35,928.62h-228.37l-33.57-230.17,386.03-135.99-124.1,366.17Z"/>
  <polygon class="cls-3" points="1099.2 .49 1099.2 1168.24 856.86 1168.24 810.41 884.59 727.55 1168.24 262.96 1168.24 221.43 914.56 147.32 1168.24 1.16 1168.24 1.16 .49 388.18 .49 534.35 893.17 795.1 .49 1099.2 .49"/>
</svg>